<svg width="43" height="43" viewBox="0 0 43 43" fill="none" xmlns="http://www.w3.org/2000/svg">
<g clip-path="url(#clip0_2543_21928)">
<path fill-rule="evenodd" clip-rule="evenodd" d="M18.0332 20.6737L13.3463 20.8406L17.7966 21.0879L18.0332 20.6737ZM17.4726 21.6585L12.7746 21.8257L17.2414 22.0739L17.4726 21.6585ZM16.9119 22.6517L12.2198 22.8164L16.6812 23.0644L16.9119 22.6517ZM16.3628 23.6398L11.6649 23.8072L16.121 24.0547L16.3628 23.6398ZM22.1058 15.7025L16.1238 15.9154L22.1228 16.2487L22.1058 15.7025ZM22.0679 14.725L16.694 14.9135L22.0849 15.2227L22.0679 14.725ZM22.0295 13.7822L17.2416 13.9397L22.0526 14.2069L22.0295 13.7822ZM21.9973 12.8143L17.8005 12.9546L22.0139 13.2035L21.9973 12.8143ZM21.9701 12.0319H18.3199L21.9755 12.2258L21.9701 12.0319ZM15.7967 24.6275L11.1101 24.7973H15.7011L15.7967 24.6275Z" fill="#1D2939"/>
<path fill-rule="evenodd" clip-rule="evenodd" d="M31.6797 12.0634H24.9255L24.734 12.4024L28.1139 12.5817C28.1536 12.5817 28.1536 12.6379 28.0969 12.6379L24.537 12.7569L24.1936 13.3579L27.5505 13.5561C27.5956 13.5618 27.5845 13.6237 27.545 13.6237L23.9792 13.7409L23.6474 14.3164L26.9988 14.5024C27.072 14.5081 27.072 14.5702 26.9988 14.5702L23.4388 14.6951L23.1009 15.2969L26.4412 15.4884C26.5144 15.4941 26.5089 15.5616 26.4412 15.5616L22.8813 15.6884L22.5374 16.2828L25.8832 16.4687C25.9337 16.4744 25.9398 16.5365 25.872 16.5365L15.6143 16.8801L25.3482 17.4209C25.4099 17.4209 25.4045 17.4998 25.3367 17.4998L15.0624 17.866L24.7963 18.4066C24.8414 18.4066 24.8525 18.4798 24.7848 18.4798L14.4935 18.8516L24.2274 19.3924C24.2671 19.398 24.3061 19.4712 24.222 19.4769L13.947 19.8425L23.6807 20.3831C23.7088 20.3888 23.7369 20.462 23.6696 20.462L18.4984 20.6463L18.5154 21.1131L23.1231 21.3691C23.1567 21.3748 23.1737 21.4423 23.1116 21.4423L18.5324 21.6051L18.5548 22.1271L22.5544 22.3494C22.5936 22.355 22.6106 22.4339 22.5429 22.4339L18.5772 22.5732L18.5945 23.146L22.0025 23.3353C22.0417 23.3408 22.0531 23.414 21.9855 23.414L18.6114 23.5345L18.6339 24.1646L21.4504 24.3211C21.49 24.3268 21.49 24.3945 21.4336 24.3945L18.6452 24.4954L18.6566 24.7662H27.7483C30.1591 24.7662 32.3219 23.0087 32.7276 21.6116C33.1335 20.2147 33.1335 18.9529 31.1956 18.3221C32.2774 18.0741 34.1585 16.8541 34.5304 15.1674C34.8677 13.635 34.3047 12.069 31.6797 12.0634ZM27.1066 21.8467H24.3128L25.8899 19.0527H27.9629C30.1035 19.0527 29.0668 21.8467 27.1066 21.8467ZM30.7228 15.8527C30.6326 16.1907 29.9562 17.047 29.1006 17.047H27.0275L28.3567 14.7038H29.4158C30.7674 14.7489 30.8125 15.515 30.7228 15.8527ZM41.9139 28.8149C41.9139 27.7322 41.0138 26.8253 39.9311 26.8253C38.8203 26.8253 37.9134 27.7466 37.9134 28.8783C37.9123 29.1445 37.9639 29.4083 38.0653 29.6545C38.1666 29.9006 38.3157 30.1243 38.504 30.3125C38.6922 30.5008 38.9159 30.6499 39.1621 30.7512C39.4083 30.8525 39.6721 30.9041 39.9383 30.903C40.7604 30.903 41.5409 30.3406 41.7729 29.5742H40.7464C40.5425 29.8976 40.2758 30.0451 39.9097 30.0451C39.4459 30.0451 39.0314 29.7287 38.8976 29.2788H41.8642C41.8997 29.0611 41.9139 28.9554 41.9139 28.8149ZM38.8697 28.5438C39.0033 28.0165 39.4251 27.679 39.9453 27.679C40.4658 27.679 40.8735 28.0096 40.9999 28.5438H38.8697ZM28.5863 27.0129V27.3287C28.2913 27.0123 27.8638 26.8323 27.4067 26.8323C26.3943 26.8323 25.5313 27.6969 25.5313 28.8219C25.5313 29.8832 26.2948 30.8352 27.4267 30.8352C27.9259 30.8352 28.3055 30.7199 28.6639 30.3122V30.8114H29.522V27.0129H28.5863ZM27.5385 30.0301C27.2258 30.0301 26.926 29.9059 26.7049 29.6848C26.4838 29.4637 26.3596 29.1638 26.3596 28.8512C26.3596 28.5385 26.4838 28.2386 26.7049 28.0176C26.926 27.7965 27.2258 27.6723 27.5385 27.6723C27.8512 27.6723 28.151 27.7965 28.3721 28.0176C28.5932 28.2386 28.7174 28.5385 28.7174 28.8512C28.7174 29.1638 28.5932 29.4637 28.3721 29.6848C28.151 29.9059 27.8512 30.0301 27.5385 30.0301ZM3.01909 26.8251C2.63255 26.8251 2.33731 26.9587 2.01374 27.2892V26.9166H1.14893V30.8114H2.08412V28.9764C2.08412 28.4774 2.12617 27.6827 2.81515 27.6827C3.46185 27.6827 3.53223 28.4279 3.53223 28.906V30.8112H4.4672V28.7232C4.4672 28.1747 4.42515 27.9148 4.27742 27.6054C4.05953 27.1415 3.54639 26.8251 3.01909 26.8251ZM8.82897 28.8149C8.82897 27.7322 7.92907 26.8253 6.84637 26.8253C5.73555 26.8253 4.82869 27.7466 4.82869 28.8783C4.82759 29.1445 4.87921 29.4083 4.98057 29.6544C5.08193 29.9005 5.23103 30.1242 5.41925 30.3124C5.60748 30.5006 5.83111 30.6497 6.07724 30.7511C6.32338 30.8524 6.58715 30.9041 6.85334 30.903C7.67588 30.903 8.45615 30.3406 8.68821 29.5742H7.66194C7.45799 29.8976 7.19085 30.0451 6.82523 30.0451C6.36134 30.0451 5.94647 29.7287 5.81291 29.2788H8.77951C8.81502 29.0611 8.82897 28.9554 8.82897 28.8149ZM5.78502 28.5438C5.91858 28.0165 6.34042 27.679 6.86075 27.679C7.38107 27.679 7.78875 28.0096 7.91535 28.5438H5.78502ZM24.2132 30.8082H25.1482V25.6128H24.2132V30.8082ZM31.9887 26.8251C31.602 26.8251 31.3065 26.9587 30.9831 27.2892V26.9166H30.1183V30.8114H31.0537V28.9764C31.0537 28.4774 31.0958 27.6827 31.7848 27.6827C32.4313 27.6827 32.5018 28.4279 32.5018 28.906V30.8112H33.4368V28.7232C33.4368 28.1747 33.3948 27.9148 33.247 27.6054C33.0291 27.1415 32.516 26.8251 31.9887 26.8251ZM35.7709 27.6829C36.1995 27.6829 36.4455 27.8237 36.6777 28.2172H37.7319C37.4439 27.3807 36.7059 26.8251 35.8057 26.8251C34.6668 26.8251 33.7528 27.732 33.7528 28.85C33.7528 29.9747 34.6738 30.9027 35.8057 30.9027C36.0945 30.9012 36.3797 30.8398 36.6435 30.7224C36.9073 30.6051 37.1438 30.4342 37.3382 30.2207C37.5352 30.0028 37.6055 29.8762 37.7319 29.532H36.6777C36.4594 29.8693 36.1786 30.0449 35.8271 30.0449C35.173 30.0449 34.6882 29.5387 34.6882 28.8637C34.6882 28.1821 35.1521 27.6829 35.7709 27.6829ZM12.4028 29.2929L11.7407 26.9168H10.9883L10.3189 29.2929L9.52731 26.9168H8.70237L10.0028 30.8114H10.6017L11.3611 28.2878L12.0991 30.8114H12.7277L13.9747 26.9168H13.2016L12.4028 29.2929ZM17.4124 26.8292C16.9555 26.8292 16.528 27.0092 16.2327 27.3254V25.613H15.2975V30.8082H16.1552V30.3092C16.5138 30.7169 16.8934 30.8319 17.3926 30.8319C18.5245 30.8319 19.288 29.8802 19.288 28.8186C19.2882 27.6938 18.4249 26.8292 17.4124 26.8292ZM17.2806 30.0301C16.9679 30.0301 16.668 29.9059 16.447 29.6848C16.2259 29.4637 16.1017 29.1638 16.1017 28.8512C16.1017 28.5385 16.2259 28.2386 16.447 28.0176C16.668 27.7965 16.9679 27.6723 17.2806 27.6723C17.5932 27.6723 17.8931 27.7965 18.1142 28.0176C18.3353 28.2386 18.4595 28.5385 18.4595 28.8512C18.4595 29.1638 18.3353 29.4637 18.1142 29.6848C17.8931 29.9059 17.5932 30.0301 17.2806 30.0301ZM22.6533 27.0129V27.3287C22.3581 27.0123 21.9308 26.8323 21.4737 26.8323C20.4614 26.8323 19.5978 27.6969 19.5978 28.8219C19.5978 29.8832 20.3616 30.8352 21.4933 30.8352C21.9925 30.8352 22.372 30.7199 22.7307 30.3122V30.8114H23.5883V27.0129H22.6533ZM21.6057 30.0301C21.2931 30.0301 20.9932 29.9059 20.7721 29.6848C20.551 29.4637 20.4268 29.1638 20.4268 28.8512C20.4268 28.5385 20.551 28.2386 20.7721 28.0176C20.9932 27.7965 21.2931 27.6723 21.6057 27.6723C21.9184 27.6723 22.2182 27.7965 22.4393 28.0176C22.6604 28.2386 22.7846 28.5385 22.7846 28.8512C22.7846 29.1638 22.6604 29.4637 22.4393 29.6848C22.2182 29.9059 21.9184 30.0301 21.6057 30.0301Z" fill="#1D2939"/>
</g>
<defs>
<clipPath id="clip0_2543_21928">
<rect width="42" height="42" fill="white" transform="translate(0.531494 0.467407)"/>
</clipPath>
</defs>
</svg>
